<svg width="33" height="32" viewBox="0 0 33 32" fill="none" xmlns="http://www.w3.org/2000/svg">
<g clip-path="url(#clip0_57_208)">
<path d="M16.6084 2.88125C20.8834 2.88125 21.3897 2.9 23.0709 2.975C24.6334 3.04375 25.4771 3.30625 26.0396 3.525C26.7834 3.8125 27.3209 4.1625 27.8771 4.71875C28.4396 5.28125 28.7834 5.8125 29.0709 6.55625C29.2896 7.11875 29.5522 7.96875 29.6209 9.525C29.6959 11.2125 29.7147 11.7188 29.7147 15.9875C29.7147 20.2625 29.6959 20.7688 29.6209 22.45C29.5522 24.0125 29.2896 24.8563 29.0709 25.4188C28.7834 26.1625 28.4334 26.7 27.8771 27.2563C27.3146 27.8188 26.7834 28.1625 26.0396 28.45C25.4771 28.6688 24.6272 28.9313 23.0709 29C21.3834 29.075 20.8772 29.0938 16.6084 29.0938C12.3334 29.0938 11.8272 29.075 10.1459 29C8.5834 28.9313 7.73965 28.6688 7.17715 28.45C6.4334 28.1625 5.8959 27.8125 5.33965 27.2563C4.77715 26.6938 4.4334 26.1625 4.1459 25.4188C3.92715 24.8563 3.66465 24.0063 3.5959 22.45C3.5209 20.7625 3.50215 20.2563 3.50215 15.9875C3.50215 11.7125 3.5209 11.2063 3.5959 9.525C3.66465 7.9625 3.92715 7.11875 4.1459 6.55625C4.4334 5.8125 4.7834 5.275 5.33965 4.71875C5.90215 4.15625 6.4334 3.8125 7.17715 3.525C7.73965 3.30625 8.58965 3.04375 10.1459 2.975C11.8272 2.9 12.3334 2.88125 16.6084 2.88125ZM16.6084 0C12.2646 0 11.7209 0.01875 10.0146 0.09375C8.31465 0.16875 7.1459 0.44375 6.1334 0.8375C5.07715 1.25 4.1834 1.79375 3.2959 2.6875C2.40215 3.575 1.8584 4.46875 1.4459 5.51875C1.05215 6.5375 0.777148 7.7 0.702148 9.4C0.627148 11.1125 0.608398 11.6562 0.608398 16C0.608398 20.3438 0.627148 20.8875 0.702148 22.5938C0.777148 24.2938 1.05215 25.4625 1.4459 26.475C1.8584 27.5313 2.40215 28.425 3.2959 29.3125C4.1834 30.2 5.07715 30.75 6.12715 31.1562C7.1459 31.55 8.3084 31.825 10.0084 31.9C11.7146 31.975 12.2584 31.9937 16.6021 31.9937C20.9459 31.9937 21.4897 31.975 23.1959 31.9C24.8959 31.825 26.0647 31.55 27.0772 31.1562C28.1272 30.75 29.0209 30.2 29.9084 29.3125C30.7959 28.425 31.3459 27.5313 31.7521 26.4813C32.1459 25.4625 32.4209 24.3 32.4959 22.6C32.5709 20.8938 32.5897 20.35 32.5897 16.0063C32.5897 11.6625 32.5709 11.1188 32.4959 9.4125C32.4209 7.7125 32.1459 6.54375 31.7521 5.53125C31.3584 4.46875 30.8147 3.575 29.9209 2.6875C29.0334 1.8 28.1397 1.25 27.0897 0.84375C26.0709 0.45 24.9084 0.175 23.2084 0.1C21.4959 0.01875 20.9522 0 16.6084 0Z" fill="white"/>
<path d="M16.6084 7.78125C12.0709 7.78125 8.38965 11.4625 8.38965 16C8.38965 20.5375 12.0709 24.2188 16.6084 24.2188C21.1459 24.2188 24.8271 20.5375 24.8271 16C24.8271 11.4625 21.1459 7.78125 16.6084 7.78125ZM16.6084 21.3312C13.6646 21.3312 11.2771 18.9438 11.2771 16C11.2771 13.0563 13.6646 10.6687 16.6084 10.6687C19.5521 10.6687 21.9396 13.0563 21.9396 16C21.9396 18.9438 19.5521 21.3312 16.6084 21.3312Z" fill="white"/>
<path d="M27.0709 7.45635C27.0709 8.51885 26.2084 9.3751 25.1521 9.3751C24.0896 9.3751 23.2334 8.5126 23.2334 7.45635C23.2334 6.39385 24.0959 5.5376 25.1521 5.5376C26.2084 5.5376 27.0709 6.4001 27.0709 7.45635Z" fill="white"/>
</g>
<defs>
<clipPath id="clip0_57_208">
<rect width="32" height="32" fill="white" transform="translate(0.608398)"/>
</clipPath>
</defs>
</svg>
