<svg width="208" height="26" viewBox="0 0 208 26" fill="none" xmlns="http://www.w3.org/2000/svg">
<path d="M4.03283 25.2928V4.0221H0V0.707184H11.5517V4.0221H7.51884V25.2928H4.03283Z" fill="white"/>
<path d="M14.7995 25.2928V0.707184H18.2855V11.239H22.5918V0.707184H26.0778V25.2928H22.5918V14.3467H18.2855V25.2928H14.7995Z" fill="white"/>
<path d="M31.0601 25.2928V0.707184H41.4497V4.0221H34.5461V11.239H40.5611V14.5539H34.5461V21.7707H41.4497V25.2928H31.0601Z" fill="white"/>
<path d="M55.7582 25.2928V4.0221H51.7254V0.707184H63.2771V4.0221H59.2442V25.2928H55.7582Z" fill="white"/>
<path d="M70.0109 4.0221V11.6878H71.9931C72.6083 11.6878 73.0982 11.6073 73.4627 11.4461C73.8273 11.262 74.1121 11.0087 74.3171 10.6865C74.4994 10.3642 74.6247 9.97284 74.6931 9.51243C74.7614 9.02901 74.7956 8.47652 74.7956 7.85497C74.7956 7.23343 74.7614 6.69245 74.6931 6.23204C74.6247 5.74862 74.488 5.33426 74.283 4.98895C73.8501 4.34438 73.0298 4.0221 71.8223 4.0221H70.0109ZM66.5249 25.2928V0.707184H72.1298C76.231 0.707184 78.2816 3.1128 78.2816 7.92403C78.2816 9.37431 78.0538 10.6059 77.5981 11.6188C77.1652 12.6317 76.3905 13.4489 75.2741 14.0704L79.0335 25.2928H75.3424L72.0957 14.7956H70.0109V25.2928H66.5249Z" fill="white"/>
<path d="M89.8258 16.6948L88.117 7.78591H88.0486L86.3398 16.6948H89.8258ZM81.2133 25.2928L86.6474 0.707184H89.5524L94.9865 25.2928H91.5005L90.4752 20.0097H85.7246L84.6993 25.2928H81.2133Z" fill="white"/>
<path d="M98.5144 25.2928V0.707184H102V25.2928H98.5144Z" fill="white"/>
<path d="M106.959 25.2928V0.707184H110.309L115.572 15.5207H115.64V0.707184H119.126V25.2928H115.845L110.514 10.5138H110.445V25.2928H106.959Z" fill="white"/>
<path d="M124.093 25.2928V0.707184H127.579V25.2928H124.093Z" fill="white"/>
<path d="M132.538 25.2928V0.707184H135.888L141.151 15.5207H141.219V0.707184H144.705V25.2928H141.424L136.093 10.5138H136.024V25.2928H132.538Z" fill="white"/>
<path d="M149.365 6.50829C149.365 5.51842 149.536 4.64365 149.877 3.88398C150.219 3.12431 150.675 2.49125 151.245 1.98481C151.791 1.50138 152.407 1.13306 153.09 0.879835C153.796 0.626612 154.503 0.5 155.209 0.5C155.915 0.5 156.61 0.626612 157.294 0.879835C158 1.13306 158.638 1.50138 159.208 1.98481C159.754 2.49125 160.199 3.12431 160.541 3.88398C160.882 4.64365 161.053 5.51842 161.053 6.50829V7.75138H157.567V6.50829C157.567 5.65654 157.328 5.03499 156.849 4.64365C156.394 4.22928 155.847 4.0221 155.209 4.0221C154.571 4.0221 154.013 4.22928 153.534 4.64365C153.079 5.03499 152.851 5.65654 152.851 6.50829V19.4917C152.851 20.3435 153.079 20.9765 153.534 21.3909C154.013 21.7822 154.571 21.9779 155.209 21.9779C155.847 21.9779 156.394 21.7822 156.849 21.3909C157.328 20.9765 157.567 20.3435 157.567 19.4917V14.8646H154.799V11.7569H161.053V19.4917C161.053 20.5276 160.882 21.4139 160.541 22.1506C160.199 22.8872 159.754 23.4972 159.208 23.9807C158.638 24.4871 158 24.8669 157.294 25.1202C156.61 25.3734 155.915 25.5 155.209 25.5C154.503 25.5 153.796 25.3734 153.09 25.1202C152.407 24.8669 151.791 24.4871 151.245 23.9807C150.675 23.4972 150.219 22.8872 149.877 22.1506C149.536 21.4139 149.365 20.5276 149.365 19.4917V6.50829Z" fill="white"/>
<path d="M173.881 25.2928V0.707184H179.11C180.067 0.707184 180.91 0.833795 181.639 1.08702C182.368 1.34024 183.029 1.78913 183.621 2.4337C184.213 3.07827 184.623 3.83794 184.851 4.71271C185.079 5.56446 185.193 6.72698 185.193 8.20028C185.193 9.30525 185.125 10.2376 184.988 10.9972C184.874 11.7569 184.612 12.4705 184.202 13.1381C183.723 13.9438 183.085 14.5769 182.288 15.0373C181.491 15.4747 180.442 15.6934 179.144 15.6934H177.367V25.2928H173.881ZM177.367 4.0221V12.3785H179.041C179.748 12.3785 180.294 12.2749 180.682 12.0677C181.069 11.8605 181.354 11.5727 181.536 11.2044C181.718 10.8591 181.821 10.4332 181.844 9.9268C181.889 9.42035 181.912 8.85635 181.912 8.23481C181.912 7.6593 181.901 7.11832 181.878 6.61188C181.855 6.08241 181.753 5.62201 181.57 5.23066C181.388 4.83932 181.115 4.54005 180.75 4.33287C180.386 4.12569 179.861 4.0221 179.178 4.0221H177.367Z" fill="white"/>
<path d="M189.61 25.2928V0.707184H193.096V25.2928H189.61Z" fill="white"/>
<path d="M200.481 25.2928V4.0221H196.448V0.707184H208V4.0221H203.967V25.2928H200.481Z" fill="white"/>
</svg>
